<svg id="visual" viewBox="0 0 900 600" width="900" height="600" xmlns="http://www.w3.org/2000/svg" xmlns:xlink="http://www.w3.org/1999/xlink" version="1.1"><rect x="0" y="0" width="900" height="600" fill="#001220"></rect><defs><linearGradient id="grad1_0" x1="33.3%" y1="0%" x2="100%" y2="100%"><stop offset="20%" stop-color="#001220" stop-opacity="1"></stop><stop offset="80%" stop-color="#001220" stop-opacity="1"></stop></linearGradient></defs><defs><linearGradient id="grad2_0" x1="0%" y1="0%" x2="66.7%" y2="100%"><stop offset="20%" stop-color="#001220" stop-opacity="1"></stop><stop offset="80%" stop-color="#001220" stop-opacity="1"></stop></linearGradient></defs><g transform="translate(900, 0)"><path d="M0 216.3C-40.8 212.4 -81.6 208.4 -108.2 187.3C-134.8 166.3 -147.2 128.1 -162.8 94C-178.5 59.9 -197.4 30 -216.3 0L0 0Z" fill="#7ee057"></path></g><g transform="translate(0, 600)"><path d="M0 -216.3C43.1 -213.7 86.2 -211.1 108.2 -187.3C130.1 -163.6 131 -118.7 145.5 -84C160 -49.3 188.2 -24.6 216.3 0L0 0Z" fill="#7ee057"></path></g></svg>