<svg id="visual" viewBox="0 0 990 631" width="990" height="631" xmlns="http://www.w3.org/2000/svg" xmlns:xlink="http://www.w3.org/1999/xlink" version="1.1"><rect x="0" y="0" width="990" height="631" fill="#212429"></rect><defs><linearGradient id="grad1_0" x1="36.3%" y1="0%" x2="100%" y2="100%"><stop offset="18.621236133122025%" stop-color="#212429" stop-opacity="1"></stop><stop offset="81.37876386687797%" stop-color="#212429" stop-opacity="1"></stop></linearGradient></defs><defs><linearGradient id="grad2_0" x1="0%" y1="0%" x2="63.7%" y2="100%"><stop offset="18.621236133122025%" stop-color="#212429" stop-opacity="1"></stop><stop offset="81.37876386687797%" stop-color="#212429" stop-opacity="1"></stop></linearGradient></defs><g transform="translate(990, 0)"><path d="M0 264.1C-53.6 261.5 -107.1 258.8 -132.1 228.8C-157 198.7 -153.4 141.2 -170.6 98.5C-187.9 55.8 -226 27.9 -264.1 0L0 0Z" fill="#4cb47f"></path></g><g transform="translate(0, 631)"><path d="M0 -264.1C32.2 -233.4 64.3 -202.6 106.5 -184.5C148.7 -166.3 200.8 -160.7 228.8 -132.1C256.7 -103.4 260.4 -51.7 264.1 0L0 0Z" fill="#4cb47f"></path></g></svg>