<svg id="visual" viewBox="0 0 300 900" width="300" height="900" xmlns="http://www.w3.org/2000/svg" xmlns:xlink="http://www.w3.org/1999/xlink" version="1.1"><rect x="0" y="0" width="300" height="900" fill="#212429"></rect><defs><linearGradient id="grad1_0" x1="0%" y1="0%" x2="100%" y2="100%"><stop offset="30.000000000000004%" stop-color="#212429" stop-opacity="1"></stop><stop offset="70%" stop-color="#212429" stop-opacity="1"></stop></linearGradient></defs><defs><linearGradient id="grad2_0" x1="0%" y1="0%" x2="100%" y2="100%"><stop offset="30.000000000000004%" stop-color="#212429" stop-opacity="1"></stop><stop offset="70%" stop-color="#212429" stop-opacity="1"></stop></linearGradient></defs><g transform="translate(300, 0)"><path d="M0 135C-11.1 110.1 -22.3 85.2 -44.5 77.1C-66.7 68.9 -100 77.6 -116.9 67.5C-133.8 57.4 -134.4 28.7 -135 0L0 0Z" fill="#4cb47f"></path></g><g transform="translate(0, 900)"><path d="M0 -135C26.2 -133 52.4 -130.9 67.5 -116.9C82.6 -102.9 86.7 -77 96.1 -55.5C105.5 -34 120.3 -17 135 0L0 0Z" fill="#4cb47f"></path></g></svg>