<svg id="visual" viewBox="0 0 700 700" width="700" height="700" xmlns="http://www.w3.org/2000/svg" xmlns:xlink="http://www.w3.org/1999/xlink" version="1.1"><rect x="0" y="0" width="700" height="700" fill="#212429"></rect><defs><linearGradient id="grad1_0" x1="0%" y1="0%" x2="100%" y2="100%"><stop offset="30%" stop-color="#212429" stop-opacity="1"></stop><stop offset="70%" stop-color="#212429" stop-opacity="1"></stop></linearGradient></defs><defs><linearGradient id="grad2_0" x1="0%" y1="0%" x2="100%" y2="100%"><stop offset="30%" stop-color="#212429" stop-opacity="1"></stop><stop offset="70%" stop-color="#212429" stop-opacity="1"></stop></linearGradient></defs><g transform="translate(700, 0)"><path d="M0 222.7C-43.3 219.4 -86.7 216.1 -111.4 192.9C-136.1 169.7 -142.2 126.5 -157.6 91C-173.1 55.5 -197.9 27.8 -222.7 0L0 0Z" fill="#4cb47f"></path></g><g transform="translate(0, 700)"><path d="M0 -222.7C31.8 -204.8 63.5 -186.9 98.5 -170.6C133.5 -154.3 171.7 -139.5 192.9 -111.4C214.1 -83.2 218.4 -41.6 222.7 0L0 0Z" fill="#4cb47f"></path></g></svg>