<svg id="visual" viewBox="0 0 580 900" width="580" height="900" xmlns="http://www.w3.org/2000/svg" xmlns:xlink="http://www.w3.org/1999/xlink" version="1.1"><rect x="0" y="0" width="580" height="900" fill="#212429"></rect><defs><linearGradient id="grad1_0" x1="0%" y1="0%" x2="100%" y2="100%"><stop offset="30%" stop-color="#212429" stop-opacity="1"></stop><stop offset="70%" stop-color="#212429" stop-opacity="1"></stop></linearGradient></defs><defs><linearGradient id="grad2_0" x1="0%" y1="0%" x2="100%" y2="100%"><stop offset="30%" stop-color="#212429" stop-opacity="1"></stop><stop offset="70%" stop-color="#212429" stop-opacity="1"></stop></linearGradient></defs><g transform="translate(580, 0)"><path d="M0 240.9C-51.4 239.9 -102.7 238.9 -120.5 208.6C-138.2 178.3 -122.4 118.7 -136.8 79C-151.3 39.3 -196.1 19.7 -240.9 0L0 0Z" fill="#4cb47f"></path></g><g transform="translate(0, 900)"><path d="M0 -240.9C44.3 -235.9 88.6 -230.8 120.5 -208.6C152.3 -186.4 171.7 -147.1 189.7 -109.5C207.7 -71.9 224.3 -35.9 240.9 0L0 0Z" fill="#4cb47f"></path></g></svg>