<svg id="visual" viewBox="0 0 1368 540" width="1368" height="540" xmlns="http://www.w3.org/2000/svg" xmlns:xlink="http://www.w3.org/1999/xlink" version="1.1"><rect x="0" y="0" width="1368" height="540" fill="#212429"></rect><defs><linearGradient id="grad1_0" x1="60.5%" y1="0%" x2="100%" y2="100%"><stop offset="-0.6666666666666643%" stop-color="#212429" stop-opacity="1"></stop><stop offset="100.66666666666667%" stop-color="#212429" stop-opacity="1"></stop></linearGradient></defs><defs><linearGradient id="grad2_0" x1="0%" y1="0%" x2="39.5%" y2="100%"><stop offset="-0.6666666666666643%" stop-color="#212429" stop-opacity="1"></stop><stop offset="100.66666666666667%" stop-color="#212429" stop-opacity="1"></stop></linearGradient></defs><g transform="translate(1368, 0)"><path d="M0 243C-45.6 238.4 -91.2 233.9 -121.5 210.4C-151.8 187 -166.8 144.7 -184.5 106.5C-202.2 68.3 -222.6 34.1 -243 0L0 0Z" fill="#4cb47f"></path></g><g transform="translate(0, 540)"><path d="M0 -243C46.4 -238.9 92.8 -234.8 121.5 -210.4C150.2 -186.1 161.1 -141.5 178.4 -103C195.7 -64.5 219.3 -32.3 243 0L0 0Z" fill="#4cb47f"></path></g></svg>